# xmcd
#
# Track frame offsets:
#	150
#	19082
#	33310
#	53375
#	68093
#	83169
#	103691
#	119519
#	138849
#	162407
#	183583
#	197306
#	216967
#	234283
#	251008
#
# Disc length: 3545 seconds
#
# Revision: 0
# Processed by: cddbd v1.5.1PL0 Copyright (c) Steve Scherf et al.
# Submitted via: audiograbber 1.83.01
#
DISCID=c30dd70f
DTITLE=Various Artist - Best Of Country Male Vol#3
DYEAR=2001
DGENRE=Karaoke
TTITLE0=Travis Tritt - Its A Good Day To Be Alive
TTITLE1=Alan Jackson - Its Alright To Be A Red Neck
TTITLE2=Lone Star - Im Already There
TTITLE3=Toby Keith - I Want To Talk About Me
TTITLE4=Brad Paisley - Wrapped Around
TTITLE5=David Ball - Riding With Private Malone
TTITLE6=Garth Brooks and George Jones - Beer Run
TTITLE7=Warren Brothers - Where Does It Hurt
TTITLE8=Garth Brooks - Wrapped Up In You
TTITLE9=Tim McGraw - Angry All The Time
TTITLE10=George Jones - The Man He Was
TTITLE11=George Strait - Run
TTITLE12=Toby Keith - You Shouldnt Kiss Me Like This
TTITLE13=Gary Allen - Man Of Me
TTITLE14=Kenny Rogers - Beautiful
EXTD=
EXTT0=
EXTT1=
EXTT2=
EXTT3=
EXTT4=
EXTT5=
EXTT6=
EXTT7=
EXTT8=
EXTT9=
EXTT10=
EXTT11=
EXTT12=
EXTT13=
EXTT14=
PLAYORDER=
